<svg width="32" height="32" viewBox="0 0 32 32" xmlns="http://www.w3.org/2000/svg">
  <defs>
    <linearGradient id="faviconGradient" x1="0%" y1="0%" x2="100%" y2="100%">
      <stop offset="0%" style="stop-color:#3B82F6;stop-opacity:1" />
      <stop offset="100%" style="stop-color:#1E40AF;stop-opacity:1" />
    </linearGradient>
  </defs>
  
  <!-- Background circle -->
  <circle cx="16" cy="16" r="15" fill="url(#faviconGradient)"/>
  
  <!-- Link icon -->
  <g transform="translate(8, 8)">
    <path d="M6 2C6 1.4 5.6 1 5 1S4 1.4 4 2C4 2.6 4.4 3 5 3H6V4H5C3.9 4 3 3.1 3 2S3.9 0 5 0S7 0.9 7 2V3H6V2Z" fill="white"/>
    <path d="M6 6C6 6.6 5.6 7 5 7S4 6.6 4 6C4 5.4 4.4 5 5 5H6V4H5C3.9 4 3 4.9 3 6S3.9 8 5 8S7 7.1 7 6V5H6V6Z" fill="white"/>
    <line x1="5" y1="3" x2="5" y2="5" stroke="white" stroke-width="0.8"/>
  </g>
  
  <!-- Small "B" indicator -->
  <text x="20" y="22" font-family="Arial, sans-serif" font-size="8" font-weight="bold" fill="white">B</text>
</svg>
