<svg width="120" height="40" viewBox="0 0 120 40" xmlns="http://www.w3.org/2000/svg">
  <defs>
    <linearGradient id="logoGradient" x1="0%" y1="0%" x2="100%" y2="100%">
      <stop offset="0%" style="stop-color:#3B82F6;stop-opacity:1" />
      <stop offset="100%" style="stop-color:#1E40AF;stop-opacity:1" />
    </linearGradient>
  </defs>
  
  <!-- Link icon -->
  <g transform="translate(5, 8)">
    <path d="M8 4C8 2.9 7.1 2 6 2S4 2.9 4 4C4 5.1 4.9 6 6 6H8V8H6C3.8 8 2 6.2 2 4S3.8 0 6 0S10 1.8 10 4V6H8V4Z" fill="url(#logoGradient)"/>
    <path d="M8 12C8 13.1 7.1 14 6 14S4 13.1 4 12C4 10.9 4.9 10 6 10H8V8H6C3.8 8 2 9.8 2 12S3.8 16 6 16S10 14.2 10 12V10H8V12Z" fill="url(#logoGradient)"/>
    <line x1="6" y1="6" x2="6" y2="10" stroke="url(#logoGradient)" stroke-width="1.5"/>
  </g>
  
  <!-- Text -->
  <text x="30" y="18" font-family="Arial, sans-serif" font-size="18" font-weight="bold" fill="url(#logoGradient)">
    Back
  </text>
  <text x="30" y="32" font-family="Arial, sans-serif" font-size="12" font-weight="normal" fill="#6B7280">
    .ma
  </text>
</svg>
